<svg width="48" height="42" viewBox="0 0 48 42" fill="none" xmlns="http://www.w3.org/2000/svg">
<path d="M19.5273 27.4602L29.7496 22.5371" stroke="#FF813C"/>
<path d="M15 14L25 9" stroke="#FF813C"/>
<path d="M22.082 12.0771L29.7487 8.38477" stroke="#FF813C"/>
<path d="M19.8477 29.0001L29.431 24.3848" stroke="#FF813C"/>
<path d="M2.91667 11.4999L1 13.923L24 40.9998L35.1806 27.8374M9.15993 3.60717L11.2222 1H36.7778L47 13.923L40.2917 21.8204" stroke="#2F62FF"/>
<path d="M1.32031 13.9238H46.6814" stroke="#2F62FF"/>
<path d="M11.2227 1L15.056 13.923L24.0004 1" stroke="#2F62FF" stroke-linejoin="bevel"/>
<path d="M24 1L32.9444 13.923L36.7778 1" stroke="#2F62FF" stroke-linejoin="bevel"/>
<path d="M15.0547 13.9238L23.9991 41.0006L32.9436 13.9238" stroke="#2F62FF" stroke-linejoin="bevel"/>
<path d="M6.11133 30.6608C7.59329 30.6608 8.79466 29.5036 8.79466 28.0762H9.17799C9.17799 29.5036 10.3794 30.6608 11.8613 30.6608V31.03C10.3794 31.03 9.17799 32.1872 9.17799 33.6146H8.79466C8.79466 32.1872 7.59329 31.03 6.11133 31.03V30.6608Z" stroke="#FF813C"/>
<path d="M1 6.53814C3.46994 6.53814 5.47222 4.60953 5.47222 2.23047H6.11111C6.11111 4.60953 8.11339 6.53814 10.5833 6.53814V7.15352C8.11339 7.15352 6.11111 9.08212 6.11111 11.4612H5.47222C5.47222 9.08212 3.46994 7.15352 1 7.15352V6.53814Z" stroke="#FF813C"/>
<path d="M34.2227 24.4675C36.0339 24.4675 37.5023 23.0532 37.5023 21.3086H37.9708C37.9708 23.0532 39.4391 24.4675 41.2504 24.4675V24.9188C39.4391 24.9188 37.9708 26.3331 37.9708 28.0778H37.5023C37.5023 26.3331 36.0339 24.9188 34.2227 24.9188V24.4675Z" stroke="#FF813C"/>
</svg>
