<svg width="443" height="355" viewBox="0 0 443 355" fill="none" xmlns="http://www.w3.org/2000/svg">
<g clip-path="url(#clip0)">
<path d="M429.768 355C436.948 355 442.692 349.261 442.795 342.19C443.308 306.731 446.18 254.362 379.304 239.81C325.147 228.127 357.251 131.896 211.397 138.147C106.673 142.656 134.469 230.791 53.1313 238.17C-1.02571 242.987 -1.53856 311.445 0.61541 342.805C1.02569 349.671 6.76961 355 13.6418 355H429.768Z" fill="#D2E3FC"/>
<path opacity="0.55" d="M379.304 239.81C325.147 228.127 357.251 131.896 211.397 138.147C186.472 139.172 169.138 145.013 155.906 153.314C160.317 152.7 165.035 152.29 170.061 152.085C315.916 145.833 283.811 242.064 337.968 253.747C404.126 268.095 402.074 319.439 401.459 355H429.768C436.948 355 442.692 349.261 442.795 342.19C443.41 306.629 446.282 254.26 379.304 239.81Z" fill="#A5CBF9"/>
<path d="M149.307 0H146.846V119.7H149.307V0Z" fill="#698BD1"/>
<path d="M315.022 52.4707H312.561V145.115H315.022V52.4707Z" fill="#698BD1"/>
<path d="M314.582 133.945L143.393 113.961C136.11 113.141 129.443 118.367 128.623 125.644L115.802 235.095C114.981 242.371 120.212 249.033 127.495 249.853L298.684 269.837C305.966 270.657 312.633 265.43 313.454 258.154L326.275 148.702C327.198 141.426 321.967 134.867 314.582 133.945Z" fill="#D7F0F9"/>
<path d="M325.044 159.565L326.275 148.702C327.096 141.426 321.865 134.765 314.582 133.945L143.393 113.961C136.11 113.141 129.443 118.367 128.623 125.644L127.392 136.507L325.044 159.565Z" fill="#294CA3"/>
<path d="M147.496 129.129C147.291 131.076 145.444 132.511 143.495 132.306C141.547 132.101 140.111 130.256 140.316 128.309C140.521 126.362 142.367 124.927 144.316 125.132C146.367 125.439 147.701 127.181 147.496 129.129Z" fill="white"/>
<path d="M164.727 131.178C164.522 133.126 162.676 134.56 160.727 134.355C158.778 134.15 157.342 132.306 157.548 130.359C157.753 128.411 159.599 126.977 161.548 127.182C163.497 127.387 164.933 129.129 164.727 131.178Z" fill="#79C9E8"/>
<path d="M182.472 133.228C182.267 135.175 180.421 136.61 178.472 136.405C176.523 136.2 175.087 134.356 175.292 132.408C175.497 130.461 177.344 129.026 179.292 129.231C181.344 129.436 182.677 131.281 182.472 133.228Z" fill="#FF813C"/>
<path d="M113.648 257.846C113.648 257.846 111.288 268.095 111.699 278.548C112.006 287.976 110.878 349.568 110.878 349.568H118.366C118.366 349.568 129.136 301.299 129.546 297.507C129.956 293.715 135.392 255.592 135.392 255.592L113.648 257.846Z" fill="#0F2568"/>
<path d="M118.571 254.977C118.571 254.977 120.315 268.197 123.289 277.523C126.264 286.849 140.726 349.568 140.726 349.568H148.214C148.214 349.568 146.778 301.299 146.265 297.507C145.752 293.715 141.957 255.591 141.957 255.591L118.571 254.977Z" fill="#132E82"/>
<path d="M141.342 349.568V354.795H155.701C156.522 354.795 156.83 353.77 156.112 353.258C154.06 351.823 150.675 349.978 147.496 349.466H141.342V349.568Z" fill="#0582C1"/>
<path d="M111.288 349.568V354.795H125.648C126.469 354.795 126.777 353.77 126.059 353.258C124.007 351.823 120.622 349.978 117.443 349.466H111.288V349.568Z" fill="#0582C1"/>
<path d="M111.596 249.136L113.135 252.415L112.417 262.458L110.673 259.896L111.596 249.136Z" fill="#1F4799"/>
<path d="M146.367 297.507C145.957 294.74 143.906 274.141 142.777 262.868L137.341 263.483C137.341 263.483 145.239 328.355 145.752 349.671H148.214C148.316 349.569 146.88 301.299 146.367 297.507Z" fill="#0F2568"/>
<path d="M111.596 198.509L109.955 195.537C110.776 194 111.288 192.258 111.288 190.413C111.288 184.264 106.365 179.345 100.211 179.345C94.0567 179.345 89.1333 184.264 89.1333 190.413C89.1333 196.562 94.0567 201.481 100.211 201.481C103.288 201.481 106.057 200.251 108.109 198.202L111.596 198.509Z" fill="#4370C9"/>
<path d="M69.2347 331.327C69.2347 331.327 66.8756 329.175 68.5167 320.976C70.0553 312.777 74.0555 304.886 72.1067 295.97C70.1579 287.054 54.9775 264.508 54.8749 263.073C54.8749 261.536 50.1567 289.206 58.0546 300.172C65.9525 311.035 66.8756 314.827 66.5679 320.566C66.2602 326.305 66.6705 330.917 67.491 332.249L69.2347 331.327Z" fill="#4370C9"/>
<path d="M67.7988 314.827C66.8757 318.516 66.3629 327.74 67.7988 329.892C67.9014 330.097 68.1065 329.994 68.4143 329.585C68.004 328.047 67.6963 325.383 68.5168 320.976C70.0554 312.777 74.0556 304.886 72.1068 295.97C70.1579 287.054 54.9776 264.508 54.875 263.073C54.875 263.073 57.1315 281.828 64.9269 294.74C70.3631 303.861 68.722 311.138 67.7988 314.827Z" fill="#294EAA"/>
<path d="M72.0041 330.712C72.0041 330.712 67.491 319.541 75.0812 309.908C82.6714 300.275 94.7746 287.874 94.9798 282.955C94.9798 282.955 98.0569 306.321 88.2101 312.88C78.3634 319.439 71.3887 320.566 73.1323 330.712H72.0041Z" fill="#4370C9"/>
<path d="M82.6714 308.166C71.6964 316.159 70.7733 325.383 72.517 329.687C72.6196 329.995 72.9273 330.2 73.235 330.302C71.799 320.464 78.5686 319.336 88.3128 312.88C98.1595 306.321 95.0824 282.955 95.0824 282.955C95.0824 282.955 93.6464 300.172 82.6714 308.166Z" fill="#294EAA"/>
<path d="M64.6191 331.019C64.6191 331.019 66.0551 325.075 65.3371 318.721C64.6191 312.367 57.9521 308.78 51.6953 302.016C48.5156 298.532 47.5925 280.188 49.5413 278.548C49.5413 278.548 38.5663 291.871 40.2074 301.606C41.9511 311.342 59.7983 317.696 61.542 322.41C63.1831 327.125 63.0806 331.121 63.0806 331.121L64.6191 331.019Z" fill="#4370C9"/>
<path d="M45.7463 283.774C42.1563 293.612 45.8488 305.5 57.9521 312.879C66.8757 318.31 64.0037 329.686 64.0037 329.686L65.4397 325.177C65.5423 323.229 65.5423 320.975 65.3372 318.72C64.6192 312.366 57.9521 308.779 51.6953 302.016C48.6182 298.634 47.5925 281.519 49.3362 278.752C48.8234 279.469 47.3874 281.314 45.7463 283.774Z" fill="#294EAA"/>
<path d="M49.3362 278.753C49.4388 278.548 49.5413 278.548 49.5413 278.548C49.4388 278.65 49.3362 278.65 49.3362 278.753Z" fill="#294EAA"/>
<path d="M74.3633 330.301C74.3633 330.301 76.9275 320.771 83.2869 319.438C89.6462 318.106 96.9287 308.78 97.339 306.936C97.339 306.936 96.3133 324.665 74.3633 330.301Z" fill="#4370C9"/>
<path d="M82.8766 322.615C78.979 324.563 77.3378 327.227 76.7224 329.584C96.3133 323.333 97.2364 306.936 97.2364 306.936C97.1338 307.345 96.8261 307.96 96.2107 308.78C94.467 312.06 89.7488 319.131 82.8766 322.615Z" fill="#294EAA"/>
<path d="M88.1076 326.715H54.7723L58.7726 351.618C59.0803 353.463 60.7214 354.898 62.5677 354.898H80.3123C82.2611 354.898 83.9022 353.463 84.1074 351.618L88.1076 326.715Z" fill="#FFB18F"/>
<path d="M87.4922 330.814L88.1076 326.715H54.7723L55.3878 330.814H87.4922Z" fill="#FF813C"/>
<path d="M80.0047 326.715L76.0044 351.618C75.6967 353.463 74.0556 354.898 72.2094 354.898H80.3124C82.2612 354.898 83.9023 353.463 84.1075 351.618L88.1077 326.715H80.0047Z" fill="#FF813C"/>
<path d="M318.07 282.34H167.394V312.982H318.07V282.34Z" fill="#FFB18F"/>
<path d="M180.421 282.34H194.165L190.473 289.821H176.728L180.421 282.34Z" fill="#F77E2D"/>
<path d="M211.397 282.34H225.141L221.449 289.821H207.704L211.397 282.34Z" fill="#F77E2D"/>
<path d="M242.373 282.34H256.117L252.425 289.821H238.68L242.373 282.34Z" fill="#F77E2D"/>
<path d="M273.349 282.34H287.094L283.401 289.821H269.657L273.349 282.34Z" fill="#F77E2D"/>
<path d="M317.967 282.34V282.545L314.377 289.821H300.633L304.325 282.34H317.967Z" fill="#F77E2D"/>
<path d="M196.729 312.982H186.062V354.795H196.729V312.982Z" fill="#698BD1"/>
<path d="M196.729 312.982H194.268V354.795H196.729V312.982Z" fill="#567CC1"/>
<path d="M300.12 312.982H289.453V354.795H300.12V312.982Z" fill="#698BD1"/>
<path d="M300.12 312.982H296.94V354.795H300.12V312.982Z" fill="#567CC1"/>
<path d="M196.729 312.982H186.062V318.209H196.729V312.982Z" fill="#567CC1"/>
<path d="M300.12 312.982H289.453V318.209H300.12V312.982Z" fill="#567CC1"/>
<path d="M196.729 277.626H186.062V282.34H196.729V277.626Z" fill="#698BD1"/>
<path d="M196.729 277.626H194.268V282.34H196.729V277.626Z" fill="#567CC1"/>
<path d="M300.12 277.626H289.453V282.34H300.12V277.626Z" fill="#698BD1"/>
<path d="M300.12 277.626H296.94V282.34H300.12V277.626Z" fill="#567CC1"/>
<path d="M196.729 281.725H186.062V282.34H196.729V281.725Z" fill="#567CC1"/>
<path d="M300.12 281.725H289.453V282.34H300.12V281.725Z" fill="#567CC1"/>
<path d="M194.165 282.34L178.985 312.982H167.394V308.78L180.421 282.34H194.165Z" fill="#FF813C"/>
<path d="M211.397 282.34L196.216 312.982H209.961L225.141 282.34H211.397Z" fill="#FF813C"/>
<path d="M256.117 282.34L240.937 312.982H227.193L242.373 282.34H256.117Z" fill="#FF813C"/>
<path d="M287.094 282.34L271.913 312.982H258.169L273.349 282.34H287.094Z" fill="#FF813C"/>
<path d="M304.325 282.34L289.145 312.982H302.889L317.967 282.545L304.325 282.34Z" fill="#FF813C"/>
<path d="M194.165 282.34L190.473 289.821H176.728L180.421 282.34H194.165Z" fill="#F25E14"/>
<path d="M225.141 282.34L221.449 289.821H207.704L211.397 282.34H225.141Z" fill="#F25E14"/>
<path d="M256.117 282.34L252.425 289.821H238.68L242.373 282.34H256.117Z" fill="#F25E14"/>
<path d="M287.094 282.34L283.401 289.821H269.657L273.349 282.34H287.094Z" fill="#F25E14"/>
<path d="M317.967 282.545L314.377 289.821H300.633L304.325 282.34L317.967 282.545Z" fill="#F25E14"/>
<path d="M192.587 280.283C197.731 279.447 201.223 274.602 200.386 269.463C199.549 264.324 194.7 260.835 189.556 261.671C184.412 262.508 180.921 267.352 181.758 272.491C182.595 277.631 187.443 281.119 192.587 280.283Z" fill="#FF813C"/>
<path d="M195.396 270.964C195.396 268.607 193.447 266.66 191.088 266.66C188.729 266.66 186.78 268.607 186.78 270.964C186.78 273.322 188.729 275.269 191.088 275.269C193.55 275.269 195.396 273.322 195.396 270.964Z" fill="#4370C9"/>
<path d="M296.181 280.281C301.325 279.445 304.817 274.601 303.98 269.461C303.143 264.322 298.294 260.833 293.15 261.669C288.006 262.506 284.515 267.35 285.352 272.489C286.189 277.629 291.037 281.117 296.181 280.281Z" fill="#FF813C"/>
<path d="M298.992 270.964C298.992 268.607 297.043 266.66 294.684 266.66C292.325 266.66 290.376 268.607 290.376 270.964C290.376 273.322 292.325 275.269 294.684 275.269C297.043 275.269 298.992 273.322 298.992 270.964Z" fill="#4370C9"/>
<path d="M375.099 351.619H327.096L334.481 333.889L337.455 326.715L338.276 324.768L339.609 321.591L339.917 320.976L342.892 313.802L343.404 312.47L348.636 299.762C349.559 297.508 352.841 297.508 353.764 299.762L358.995 312.47L359.508 313.802L362.483 320.976L362.79 321.591L364.124 324.768L364.944 326.715L367.919 333.889L375.099 351.619Z" fill="#FFB18F"/>
<path d="M378.278 347.006H323.301V354.794H378.278V347.006Z" fill="#698BD1"/>
<path d="M378.176 347.006H366.278V354.794H378.176V347.006Z" fill="#567CC1"/>
<path d="M362.38 320.771H339.814L342.686 313.597H359.405L362.38 320.771Z" fill="#FF813C"/>
<path d="M367.714 333.785H334.378L337.353 326.611H364.739L367.714 333.785Z" fill="#FF813C"/>
<path d="M362.38 320.771H355.61L352.636 313.597H359.405L362.38 320.771Z" fill="#F25E14"/>
<path d="M367.714 333.785H360.944L357.969 326.611H364.739L367.714 333.785Z" fill="#F25E14"/>
<path d="M69.2348 177.295C72.8248 177.295 75.9019 174.733 76.4147 171.146C76.5173 170.532 76.5173 169.814 76.5173 169.199C76.5173 161.308 70.1579 154.852 62.1575 154.852C61.8498 154.852 61.542 154.852 61.2343 154.852C60.6189 147.063 54.0544 140.914 46.054 140.914C37.6432 140.914 30.8736 147.678 30.8736 156.082C30.8736 156.491 30.8736 156.799 30.8736 157.209C28.5145 155.877 25.7451 155.159 22.7706 155.262C15.1804 155.569 8.82104 161.718 8.30819 169.302C8.30819 169.404 8.30819 169.404 8.30819 169.507C8.10305 173.606 11.3853 177.09 15.5907 177.09H69.2348V177.295Z" fill="#F3F7FE"/>
<path d="M410.896 188.568C422.178 188.568 422.794 171.556 411.511 171.043C411.203 171.043 410.896 171.043 410.588 171.043C408.536 171.043 406.588 171.351 404.844 171.966C403.305 162.742 395.305 155.671 385.663 155.671C375.817 155.671 367.611 163.05 366.38 172.581C364.021 171.453 361.457 170.838 358.687 170.838C357.149 170.838 355.61 171.043 354.174 171.453C344.225 174.015 346.379 188.67 356.533 188.67H410.896V188.568Z" fill="#F3F7FE"/>
<path d="M274.99 104.635C286.273 104.635 286.888 87.6232 275.606 87.1107C275.298 87.1107 274.99 87.1107 274.683 87.1107C272.631 87.1107 270.682 87.4182 268.939 88.0331C267.4 78.8097 259.4 71.8408 249.758 71.8408C239.911 71.8408 231.808 79.2196 230.475 88.648C228.116 87.5207 225.551 86.9058 222.782 86.9058C221.244 86.9058 219.705 87.1108 218.269 87.5207C208.422 90.0828 210.474 104.738 220.628 104.738H274.99V104.635Z" fill="#F3F7FE"/>
<path d="M94.7747 136.2C109.786 136.2 121.956 124.041 121.956 109.042C121.956 94.0428 109.786 81.8838 94.7747 81.8838C79.763 81.8838 67.5936 94.0428 67.5936 109.042C67.5936 124.041 79.763 136.2 94.7747 136.2Z" fill="#FFB18F"/>
<path d="M94.9798 81.8838C102.365 86.7005 107.186 95.1041 107.186 104.532C107.186 119.495 95.0824 131.69 80.0046 131.69C79.902 131.69 79.902 131.69 79.7994 131.69C84.1074 134.457 89.1333 136.097 94.6721 136.097C109.647 136.097 121.853 124.004 121.853 108.939C121.956 94.0792 109.852 81.9863 94.9798 81.8838Z" fill="#FF813C"/>
<path d="M193.652 206.605L192.627 214.804L187.703 214.189L186.575 222.797L177.754 221.67L178.882 213.061L156.009 210.192L157.035 201.993L178.267 168.687L187.293 169.814L166.061 203.121L179.805 204.863L181.549 191.335L190.37 192.462L188.626 205.99L193.652 206.605Z" fill="#FF813C"/>
<path d="M218.884 227.922C213.551 227.204 208.32 224.642 205.243 220.031C202.268 215.214 201.858 211.319 202.576 205.58L204.422 191.13C205.14 185.494 206.371 181.804 210.576 177.808C214.371 174.426 220.115 172.786 225.757 173.606C231.193 174.118 236.219 176.885 239.398 181.395C242.476 186.109 242.783 190.106 242.065 195.845L240.219 210.295C239.501 215.726 238.168 219.826 234.065 223.617C229.962 227.204 224.628 228.639 218.884 227.922ZM224.731 181.804C221.346 181.292 217.756 182.829 215.602 185.494C214.166 187.339 213.653 189.491 213.346 192.258L211.499 206.708C211.192 209.27 210.987 211.729 212.217 214.087C213.653 217.059 216.525 219.313 219.91 219.621C223.295 220.133 226.782 218.698 228.834 216.136C230.577 214.189 230.885 212.242 231.295 209.27L233.142 194.82C233.449 192.155 233.655 190.413 232.731 187.851C231.398 184.572 228.218 182.214 224.731 181.804Z" fill="#FF813C"/>
<path d="M285.35 218.185L284.324 226.384L279.401 225.769L278.273 234.377L269.451 233.25L270.58 224.642L247.707 221.772L248.732 213.573L269.964 180.267L278.991 181.394L257.758 214.701L271.503 216.443L273.247 202.915L282.068 204.043L280.324 217.57L285.35 218.185Z" fill="#FF813C"/>
<path d="M105.134 186.109C104.929 186.314 104.724 186.519 104.621 186.621C104.519 186.826 104.519 186.929 104.519 187.236H103.596C103.596 186.929 103.698 186.621 103.801 186.416C104.006 186.109 104.211 186.006 104.519 185.597C104.724 185.392 104.724 185.187 104.724 184.982C104.724 184.879 104.724 184.674 104.621 184.572C104.519 184.367 104.314 184.367 104.109 184.367C103.903 184.367 103.698 184.367 103.596 184.469C103.493 184.572 103.391 184.777 103.391 184.879H102.57C102.57 184.469 102.775 184.059 103.185 183.854C103.391 183.649 103.801 183.547 104.109 183.547C104.621 183.547 105.032 183.649 105.339 184.059C105.545 184.264 105.647 184.572 105.647 184.879C105.647 185.392 105.442 185.802 105.134 186.109ZM103.596 187.646H104.416V188.569H103.596V187.646Z" fill="#D7F0F9"/>
<path d="M99.9032 192.053C99.493 192.565 99.0827 192.872 98.775 193.18C98.4673 193.59 98.4673 193.795 98.4673 194.41H96.621C96.621 193.795 96.7236 193.077 97.0313 192.565C97.4416 191.848 97.9544 191.643 98.6724 190.925C99.0827 190.515 99.1852 190.105 99.1852 189.593C99.1852 189.286 99.0827 188.978 98.9801 188.773C98.6724 188.466 98.2621 188.261 97.7493 188.261C97.339 188.261 96.9287 188.363 96.7236 188.568C96.4159 188.773 96.3133 189.183 96.3133 189.491H94.467C94.5696 188.568 94.9799 187.646 95.6979 187.236C96.2107 186.826 96.9287 186.621 97.6467 186.621C98.6724 186.621 99.6981 186.929 100.314 187.646C100.724 188.158 100.929 188.773 100.929 189.491C101.031 190.515 100.519 191.335 99.9032 192.053ZM96.7236 195.332H98.4673V197.279H96.621V195.332H96.7236Z" fill="#D7F0F9"/>
<path d="M137.136 193.795C137.136 193.795 142.06 186.314 136.418 185.597C132.11 185.084 130.264 186.314 130.264 186.314C130.264 186.314 125.238 185.802 122.469 188.159C120.622 189.798 113.648 202.404 124.828 207.015C136.008 211.627 133.649 199.944 133.649 199.944L137.136 193.795Z" fill="#1A2E35"/>
<path d="M136.418 185.494C132.11 184.982 130.264 186.211 130.264 186.211C130.264 186.211 125.238 185.699 122.469 188.056C120.622 189.696 113.648 202.301 124.828 206.913C130.059 209.065 132.315 207.63 133.239 205.478C122.674 208.45 121.546 195.742 123.289 192.053C125.033 188.364 129.341 190.106 129.341 190.106C130.982 185.904 136.418 186.416 138.675 186.724C138.265 186.109 137.547 185.699 136.418 185.494Z" fill="#142428"/>
<path d="M130.264 197.382C130.264 197.382 128.828 195.947 127.7 197.382C126.571 198.817 127.289 202.096 129.136 202.301C129.136 202.301 128.623 207.015 124.93 206.913V210.705H133.546V207.835C133.546 207.835 138.88 205.683 138.675 201.276C138.47 196.869 137.239 193.795 137.239 193.795C137.239 193.795 134.264 197.074 130.264 197.382Z" fill="#EEA886"/>
<path d="M131.495 209.065C132.315 209.372 132.213 209.987 132.213 210.807H133.444V207.835C133.444 207.835 131.392 208.45 128.315 206.81C128.418 206.708 130.161 208.45 131.495 209.065Z" fill="#A77860"/>
<path d="M133.341 190.414C133.341 190.414 128.931 188.671 128.418 190.004C128.11 190.824 128.931 191.643 130.161 192.361L129.136 192.566C128.931 192.566 128.828 192.873 129.033 193.078C129.341 193.283 130.161 193.488 131.802 193.488L133.341 190.414Z" fill="#EEA886"/>
<path d="M165.138 201.584C156.624 195.332 133.444 190.311 133.444 190.311L131.495 193.795C131.495 193.795 152.522 201.994 151.188 203.121C150.368 203.838 140.111 208.552 136.623 210.09C135.905 210.397 135.085 210.602 134.264 210.602L123.597 210.5C123.597 210.5 115.904 209.577 109.853 216.546C104.416 222.798 95.2876 237.145 95.2876 237.145L110.776 259.896L112.519 262.458V262.663C112.519 262.663 113.032 262.766 114.058 262.766C119.084 263.176 134.982 264.508 143.393 262.663L143.598 262.561L143.188 225.257C156.624 214.599 163.086 206.4 165.446 203.736C165.958 203.121 165.856 202.096 165.138 201.584ZM113.135 252.415L111.596 249.136L106.775 238.58L114.776 229.664L113.34 249.238L113.135 252.415Z" fill="#294EAA"/>
<path d="M139.495 224.027C138.059 225.052 138.47 234.276 138.059 240.117C137.444 249.751 136.931 258.154 137.341 263.586C139.495 263.483 141.547 263.176 143.29 262.868L143.495 262.766L143.085 225.462C156.522 214.804 162.984 206.605 165.343 203.941C165.958 203.223 165.856 202.199 165.138 201.686C165.138 201.584 154.47 213.164 139.495 224.027Z" fill="#1F4799"/>
</g>
<defs>
<clipPath id="clip0">
<rect width="443" height="355" fill="white"/>
</clipPath>
</defs>
</svg>
