<svg width="24" height="24" viewBox="0 0 24 24" fill="none" xmlns="http://www.w3.org/2000/svg">
<path d="M2.63778 6.39317L10.9711 10.7579C11.2511 10.9042 11.6133 10.9735 11.9778 10.9735C12.3422 10.9735 12.7044 10.9042 12.9844 10.7579L21.3178 6.39317C21.8611 6.10825 22.3744 5 21.3778 5H2.57889C1.58222 5 2.09556 6.10825 2.63778 6.39317ZM21.57 8.77975L12.9844 13.1423C12.6067 13.3352 12.3422 13.3579 11.9778 13.3579C11.6133 13.3579 11.3489 13.3352 10.9711 13.1423C10.5933 12.9495 3.04556 9.09175 2.42889 8.77867C1.99556 8.55767 2 8.81658 2 9.01592V16.9167C2 17.3717 2.62889 18 3.11111 18H20.8889C21.3711 18 22 17.3717 22 16.9167V9.017C22 8.81767 22.0044 8.55875 21.57 8.77975Z" fill="#FF813C"/>
</svg>
