<svg width="466" height="355" viewBox="0 0 466 355" fill="none" xmlns="http://www.w3.org/2000/svg">
<path d="M75.948 182.781C80.4223 182.781 84.2575 179.607 84.8967 175.162C85.0246 174.4 85.0246 173.511 85.0246 172.749C85.0246 162.971 77.0985 154.971 67.127 154.971C66.7435 154.971 66.36 154.971 65.9765 154.971C65.2095 145.32 57.0277 137.701 47.0563 137.701C36.5734 137.701 28.136 146.082 28.136 156.495C28.136 157.003 28.136 157.384 28.136 157.892C25.1957 156.241 21.7441 155.352 18.0367 155.479C8.5766 155.86 0.65056 163.479 0.0113626 172.876C0.0113626 173.003 0.0113626 173.003 0.0113626 173.13C-0.244316 178.21 3.84654 182.527 9.08796 182.527H75.948V182.781Z" fill="#F3F7FE"/>
<path d="M107.241 26.9638C116.465 26.9638 116.969 13.0199 107.744 12.5999C107.493 12.5999 107.241 12.5999 106.99 12.5999C105.313 12.5999 103.719 12.8519 102.294 13.3559C101.036 5.79596 94.4953 0 86.6128 0C78.5627 0 71.8543 6.04797 70.848 13.8599C68.9193 12.9359 66.8229 12.4319 64.5588 12.4319C63.301 12.4319 62.0432 12.5999 60.8692 12.9359C52.7352 15.0359 54.4962 27.0478 62.7979 27.0478H107.241V26.9638Z" fill="#F3F7FE"/>
<path d="M452.929 89.1878C469.733 89.1878 470.65 63.7557 453.846 62.9897C453.388 62.9897 452.929 62.9897 452.471 62.9897C449.416 62.9897 446.513 63.4493 443.916 64.3685C441.625 50.5801 429.709 40.1621 415.349 40.1621C400.684 40.1621 388.616 51.1929 386.63 65.2878C383.116 63.6025 379.297 62.6833 375.172 62.6833C372.881 62.6833 370.59 62.9897 368.451 63.6025C353.785 67.4326 356.841 89.341 371.964 89.341H452.929V89.1878Z" fill="#F3F7FE"/>
<path d="M319.659 343.841C278.17 333.476 201.116 338.694 183.604 339.945C171.365 340.819 157.231 343.776 191.764 348.564C287.775 361.874 350.864 351.637 319.659 343.841Z" fill="#ECF9FF"/>
<g clip-path="url(#clip0)">
<path d="M284.39 103.088C284.39 103.088 280.348 95.922 284.39 94.4668C288.431 93.0115 290.243 94.3565 290.441 95.9882C290.64 97.6199 288.895 104.058 288.895 104.058L284.39 103.088Z" fill="#EEA886"/>
<path d="M287.614 148.885C280.259 150.208 273.479 150.826 267.383 150.958C261.574 151.09 256.384 150.782 251.834 150.252C250.619 150.12 249.426 149.966 248.3 149.789C236.373 147.981 229.791 144.784 229.791 144.784C229.791 144.784 240.702 122.051 249.492 122.911C259.807 123.947 277.3 133.186 279.045 130.584C280.988 127.674 282.623 102.625 282.623 102.625C287.195 99.4941 289.933 102.802 289.933 102.802C289.933 102.802 298.879 146.857 287.614 148.885Z" fill="#FF813C"/>
<path d="M287.614 148.885C280.259 150.208 273.479 150.826 267.383 150.958C261.574 151.09 256.384 150.782 251.834 150.252C249.095 141.543 247.107 132.635 252.629 137.993C262.369 147.474 287.614 148.885 287.614 148.885Z" fill="#F5702E"/>
<path d="M228.974 332.603C228.974 332.603 228.201 341.643 230.1 342.591L254.617 342.547C254.617 342.547 254.617 339.725 250.685 339.085C246.754 338.468 239.84 336.153 238.67 331.037C237.499 325.922 228.974 332.603 228.974 332.603Z" fill="#0582C1"/>
<path d="M246.975 223.126C246.864 229.035 246.577 235.143 246.003 240.633C243.352 266.652 242.425 298.095 242.049 304.158C241.387 314.676 239.31 331.478 239.31 331.478C239.31 331.478 235.18 335.38 227.141 333.528C227.141 333.528 220.47 309.318 218.991 283.828C218.968 283.41 218.946 282.991 218.924 282.572C218.748 279.198 218.571 275.339 218.394 271.194C217.157 243.367 215.832 202.024 215.832 202.024L246.577 194.792C246.577 194.792 247.284 208.375 246.975 223.126Z" fill="#102976"/>
<path d="M246.975 223.126C239.178 236.554 224.313 261.294 218.372 271.194C217.135 243.367 215.81 202.024 215.81 202.024L246.577 194.792C246.577 194.792 247.284 208.375 246.975 223.126Z" fill="#0F2568"/>
<path d="M169.096 197.13C169.096 197.13 164.083 203.017 163.641 204.627C163.199 206.258 162.382 212.124 162.824 213.888C163.243 215.652 166.578 208.971 167.793 208.265C169.008 207.559 166.888 210.933 167.307 211.484C167.727 212.058 170.112 209.522 171.04 208.662C171.968 207.802 171.879 203.194 173.006 200.481C174.11 197.747 169.096 197.13 169.096 197.13Z" fill="#EEA886"/>
<path d="M167.927 322.327C167.927 322.327 163.554 326.296 164.415 329.119C165.277 331.941 169.208 333.815 169.738 337.277C170.268 340.739 172.389 342.613 174.31 342.613C176.232 342.613 183.432 342.613 183.432 342.613C183.432 342.613 184.846 340.188 181.444 339.46C178.043 338.732 176.762 334.675 176.961 330.905C177.181 327.134 176.651 322.129 176.651 322.129L169.407 320.453L167.927 322.327Z" fill="#0582C1"/>
<path d="M241.718 202.642C241.718 202.642 212.917 264.139 197.61 291.127C182.282 318.116 177.489 325.635 177.489 325.635C177.489 325.635 168.721 322.173 167.904 319.836C167.904 319.836 173.757 267.733 184.027 255.032C189.836 247.866 196.639 226.323 196.948 218.782C197.257 211.241 203.994 193.271 203.994 193.271L241.718 202.642Z" fill="#132E82"/>
<path d="M250.133 205.531C250.133 205.531 238.692 213.182 222.48 212.454C215.368 212.146 201.255 210.139 198.98 204.494C198.45 203.171 198.847 201.496 199.642 198.894C201.719 192.191 206.578 179.402 205.12 151.068C204.988 148.422 205.054 145.953 205.319 143.637C206.843 129.68 214.86 121.411 222.613 118.699C241.497 112.106 247.792 121.235 247.792 121.235C247.792 121.235 256.141 127.828 257.4 141.631C259.895 169.193 250.133 205.531 250.133 205.531Z" fill="#FF813C"/>
<path d="M228.134 117.133C228.134 117.133 236.793 122.403 246.202 120.904C246.202 120.904 248.057 120.441 247.151 118.258C247.725 116.494 247.659 116.648 247.991 115.347C248.808 112.349 249.073 110.607 249.073 110.607L243.728 105.006L238.67 99.6479C237.256 112.437 228.134 117.133 228.134 117.133Z" fill="#EEA886"/>
<path d="M237.853 104.499C237.853 104.499 240.746 112.238 247.968 115.347C248.786 112.348 249.338 109.195 249.338 109.195L243.728 105.006L237.853 104.499Z" fill="#A77860"/>
<path d="M255.036 110.343C255.036 110.343 238.493 112.415 237.323 102.25C236.152 92.1075 233.237 85.5367 243.75 83.7948C254.263 82.0528 256.759 85.691 257.996 88.9985C259.233 92.2839 259.299 109.527 255.036 110.343Z" fill="#EEA886"/>
<path d="M232.11 82.1408C231.978 81.9644 231.624 81.8101 230.873 81.7439C230.873 81.7439 231.492 81.3911 232.309 81.3911C232.508 80.3328 233.148 78.4806 235.003 78.0837C235.003 78.0837 233.987 78.5688 233.833 79.6933C236.042 77.5986 240.658 76.1874 253.203 77.6427C269.768 79.5831 263.893 89.9905 261.684 91.1812C259.476 92.3719 254.197 88.6896 250.199 88.866C246.179 89.0424 245.208 94.7753 243.816 95.525C242.425 96.2746 243.021 94.8855 241.21 93.9815C239.399 93.0774 239.112 96.1203 239.575 98.1048C240.039 100.111 237.411 102.625 237.411 102.625C237.411 102.625 237.411 102.625 234.959 99.7805C232.508 96.9361 230.542 85.2278 231.801 82.7803C231.889 82.5598 232 82.3613 232.11 82.1408Z" fill="#1A2E35"/>
<path d="M282.624 98.3246L254.551 98.5892L254.353 94.3557L282.359 92.1948L282.624 98.3246Z" fill="#4370C9"/>
<path d="M303.826 99.0305L273.258 99.4715L272.904 91.8203L303.384 89.4609L303.826 99.0305Z" fill="#4370C9"/>
<path d="M324.455 99.6482L298.658 99.6702L298.194 89.329L323.881 86.9917L324.455 99.6482Z" fill="#294EAA"/>
<path d="M324.808 101.39C325.604 101.346 326.222 100.684 326.178 99.8903L325.581 86.5944C325.537 85.8006 324.875 85.1832 324.08 85.2273C323.284 85.2714 322.666 85.9329 322.71 86.7267L323.307 100.023C323.351 100.816 324.013 101.412 324.808 101.39Z" fill="#294EAA"/>
<path d="M254.462 99.4934C253.755 99.5154 253.159 98.9862 253.115 98.2806L252.96 94.8188C252.938 94.1132 253.468 93.5179 254.175 93.4738C254.882 93.4518 255.478 93.981 255.522 94.6865L255.677 98.1483C255.721 98.8539 255.169 99.4493 254.462 99.4934Z" fill="#4370C9"/>
<path d="M199.642 198.916C201.719 192.212 206.578 179.424 205.12 151.09C204.987 148.444 205.054 145.974 205.319 143.659C211.525 143.13 221.045 149.833 221.045 149.833C221.045 149.833 215.169 185.421 199.642 198.916Z" fill="#F5702E"/>
<path d="M228.134 117.133C228.134 117.133 212.188 119.867 203.883 130.01C195.578 140.153 182.194 154.419 179.035 159.424C175.877 164.43 167.086 198.474 167.086 198.474C167.086 198.474 167.661 199.577 170.09 200.216C172.409 200.834 174.088 199.886 174.088 199.886C174.088 199.886 185.728 180.019 190.101 170.097C191.912 165.973 223.364 149.634 235.202 151.332C239.818 151.972 228.134 117.133 228.134 117.133Z" fill="#FF813C"/>
<path d="M282.468 90.9821C282.468 90.9821 285.891 93.0769 287.946 92.1949C290 91.3129 289.823 90.4971 289.823 90.4971C289.823 90.4971 283.616 88.7772 282.468 90.9821Z" fill="#EEA886"/>
<path d="M243.595 128.224C243.595 128.224 236.594 172.324 186.965 185.157L181.553 195.807L191.051 197.416C191.051 197.416 247.549 181.077 246.798 127.453L243.595 128.224Z" fill="#BC3F3F"/>
<path d="M242.513 121.191L240.216 121.411V124.719L243.595 128.225L246.798 127.453V122.845L244.501 121.191H242.513Z" fill="#A02E2E"/>
<path d="M233.524 112.415C233.524 112.415 231.315 112.922 226.235 117.112C226.235 117.112 231.271 127.806 241.917 129.085C241.917 129.085 241.74 124.123 242.513 121.191C242.513 121.191 234.076 118.17 233.524 112.415Z" fill="#F5702E"/>
<path d="M242.513 121.19C242.513 121.19 247.703 123.947 248.079 128.224C248.079 128.224 250.067 125.093 249.492 122.91C248.918 120.727 247.129 118.236 247.129 118.236C247.129 118.236 247.306 120.86 242.513 121.19Z" fill="#F5702E"/>
</g>
<defs>
<clipPath id="clip0">
<rect width="163.509" height="265.566" fill="white" transform="translate(162.691 77.0469)"/>
</clipPath>
</defs>
</svg>
